<?xml version="1.0" standalone="no"?>
<!DOCTYPE svg PUBLIC "-//W3C//DTD SVG 20010904//EN"
 "http://www.w3.org/TR/2001/REC-SVG-20010904/DTD/svg10.dtd">
<svg version="1.0" xmlns="http://www.w3.org/2000/svg"
 width="300.000000pt" height="300.000000pt" viewBox="0 0 300.000000 300.000000"
 preserveAspectRatio="xMidYMid meet">

<g transform="translate(0.000000,300.000000) scale(0.100000,-0.100000)"
fill="#000000" stroke="none">
<path d="M602 1967 c-34 -10 -122 -82 -122 -98 0 -5 29 -7 68 -4 92 8 117 -6
118 -64 1 -39 5 -46 50 -81 41 -33 51 -37 64 -26 38 34 89 27 90 -13 1 -17 65
-71 85 -71 16 0 95 104 95 124 0 21 -74 76 -102 76 -28 0 -47 19 -73 70 -21
41 -36 54 -90 80 -44 22 -128 25 -183 7z"/>
<path d="M1575 1896 c-32 -48 32 -100 75 -61 24 22 26 48 4 69 -23 24 -61 20
-79 -8z"/>
<path d="M1200 1647 l0 -238 41 3 41 3 2 90 1 90 95 3 95 3 -1 37 -1 37 -97 3
-97 3 3 62 3 62 108 3 108 3 -3 35 -3 35 -148 2 -147 2 0 -238z"/>
<path d="M2150 1648 l0 -238 40 0 40 0 0 230 c0 127 0 233 0 236 0 4 -18 7
-40 8 l-40 1 0 -237z"/>
<path d="M2350 1810 c0 -36 -2 -40 -25 -40 -22 0 -25 -4 -25 -35 0 -31 3 -35
25 -35 25 0 25 0 25 -99 0 -54 5 -112 11 -130 13 -37 53 -61 103 -61 54 0 66
8 66 45 0 29 -3 32 -24 28 -13 -3 -33 0 -45 6 -19 11 -21 20 -21 112 l0 101
40 -4 40 -4 0 38 c0 38 0 38 -40 38 l-40 0 0 40 0 40 -45 0 -45 0 0 -40z"/>
<path d="M1570 1590 l0 -180 45 0 45 0 0 180 0 180 -45 0 -45 0 0 -180z"/>
<path d="M1730 1764 c0 -3 25 -42 55 -85 30 -43 55 -82 55 -87 0 -5 -24 -42
-53 -83 -29 -41 -56 -80 -61 -86 -5 -10 5 -13 42 -13 49 0 49 0 90 61 l41 60
41 -60 c41 -61 41 -61 91 -61 58 0 59 -7 -25 111 l-54 75 59 80 c32 43 58 82
59 87 0 4 -20 7 -45 7 -43 0 -46 -2 -81 -55 -20 -30 -40 -55 -43 -55 -3 1 -22
24 -41 53 -33 49 -38 52 -83 55 -26 2 -47 0 -47 -4z"/>
<path d="M511 1570 c-72 -88 -131 -169 -131 -180 0 -37 81 -93 110 -75 5 3 35
40 65 81 30 41 61 74 69 74 21 0 43 -32 50 -71 8 -44 37 -84 76 -104 29 -15
111 -21 123 -9 4 4 -16 25 -43 47 -28 22 -50 47 -50 55 0 22 60 92 79 92 10 0
35 -13 57 -30 55 -42 68 -39 61 10 -10 79 -60 124 -136 124 -27 0 -57 -7 -73
-18 -22 -15 -30 -15 -47 -4 -25 15 -26 26 -6 52 23 30 19 41 -29 80 l-44 36
-131 -160z"/>
<path d="M594 1253 c2 -10 7 -27 10 -38 31 -122 48 -165 65 -165 15 0 23 15
36 65 10 36 21 65 25 65 4 0 15 -29 25 -66 15 -56 21 -65 38 -62 17 2 25 19
42 83 38 141 38 135 16 135 -16 0 -22 -14 -37 -75 -10 -41 -21 -72 -24 -70 -4
3 -16 36 -26 75 -25 96 -45 96 -69 0 -9 -39 -21 -72 -25 -75 -4 -3 -10 12 -14
33 -13 81 -26 112 -47 112 -15 0 -19 -5 -15 -17z"/>
<path d="M958 1254 c-36 -19 -48 -43 -48 -99 0 -38 5 -52 29 -76 24 -24 38
-29 76 -29 38 0 52 5 76 29 24 24 29 38 29 76 0 57 -12 80 -50 100 -36 19 -77
19 -112 -1z m90 -30 c35 -24 44 -59 28 -99 -32 -76 -136 -45 -136 41 0 19 54
74 72 74 7 0 24 -7 36 -16z"/>
<path d="M1190 1161 c0 -104 1 -111 20 -111 17 0 20 7 20 45 0 37 3 45 19 45
11 0 27 -16 42 -45 18 -33 30 -45 47 -45 l23 0 -26 44 c-26 44 -26 45 -6 56
16 8 21 21 21 49 0 51 -18 64 -96 69 l-64 4 0 -111z m126 47 c8 -27 -17 -48
-58 -48 -25 0 -28 3 -28 35 0 34 1 35 39 35 32 0 41 -4 47 -22z"/>
<path d="M1430 1160 c0 -91 3 -110 15 -110 11 0 15 11 15 39 0 64 21 68 63 11
24 -32 45 -50 58 -50 24 0 21 7 -32 71 l-38 45 39 45 c44 50 48 59 23 59 -10
0 -39 -24 -65 -52 l-47 -53 -1 53 c0 39 -4 52 -15 52 -12 0 -15 -19 -15 -110z"/>
<path d="M1682 1254 c-21 -15 -28 -47 -16 -78 3 -8 28 -22 55 -31 36 -12 49
-22 49 -36 0 -24 -40 -35 -70 -19 -12 6 -29 9 -38 5 -29 -11 23 -45 69 -45 96
0 108 103 14 126 -56 13 -70 35 -34 54 16 9 28 9 50 -1 40 -16 60 2 28 25 -30
20 -78 21 -107 0z"/>
<path d="M1880 1160 c0 -103 1 -110 20 -110 17 0 20 7 20 51 l0 50 53 -3 52
-3 3 -47 c3 -40 6 -48 23 -48 19 0 20 6 17 107 -3 93 -5 108 -20 111 -15 3
-18 -4 -18 -42 l0 -46 -55 0 -55 0 0 45 c0 38 -3 45 -20 45 -19 0 -20 -7 -20
-110z"/>
<path d="M2183 1250 c-62 -37 -63 -141 -2 -184 48 -33 134 -12 157 39 50 108
-55 207 -155 145z m101 -31 c20 -16 26 -29 26 -59 0 -30 -6 -43 -26 -59 -32
-25 -52 -26 -81 -6 -43 30 -37 110 10 133 32 15 41 14 71 -9z"/>
<path d="M2420 1161 c0 -104 1 -111 20 -111 17 0 20 7 20 40 l0 40 40 0 c70 0
103 59 61 111 -14 18 -31 23 -80 27 l-61 4 0 -111z m118 40 c4 -28 -12 -41
-50 -41 -25 0 -28 3 -28 36 0 35 1 35 38 32 30 -2 38 -7 40 -27z"/>
</g>
</svg>
